<svg xmlns="http://www.w3.org/2000/svg" viewBox="0 -0.5 16 16" shape-rendering="crispEdges">
<metadata>Made with Pixels to Svg https://codepen.io/shshaw/pen/XbxvNj</metadata>
<path stroke="#4a2940" d="M6 2h5M5 3h1M11 3h2M6 4h1" />
<path stroke="#867b86" d="M6 3h3M13 8h1M13 9h1M13 10h1" />
<path stroke="#706770" d="M9 3h1M13 7h1" />
<path stroke="#5d565d" d="M10 3h1M11 4h1M12 5h1M13 6h1" />
<path stroke="#2f2122" d="M13 3h1M10 5h1M9 6h1M8 7h1M7 8h1M6 9h1M5 10h1M4 11h1M3 12h1M2 13h1" />
<path stroke="#231012" d="M7 4h3M13 4h1M13 5h1M11 6h1M14 6h1M10 7h1M12 7h1M14 7h1M9 8h1M12 8h1M14 8h1M8 9h1M12 9h1M14 9h1M7 10h1M12 10h1M14 10h1M6 11h1M13 11h1M5 12h1M4 13h1M2 14h2" />
<path stroke="#4f3c3e" d="M10 4h1M11 5h1M12 6h1" />
<path stroke="#734543" d="M12 4h1M9 7h1M7 9h1M3 13h1" />
<path stroke="#603432" d="M10 6h1M8 8h1" />
<path stroke="#3b393b" d="M6 10h1M4 12h1" />
<path stroke="#434043" d="M5 11h1" />
</svg>