<svg xmlns="http://www.w3.org/2000/svg" viewBox="0 -0.5 16 16" shape-rendering="crispEdges">
<metadata>Made with Pixels to Svg https://codepen.io/shshaw/pen/XbxvNj</metadata>
<path stroke="#372910" d="M6 2h5M5 3h1M11 3h1M6 4h1" />
<path stroke="#886626" d="M6 3h1M12 4h1M9 7h1M7 9h1M13 10h1M5 11h1M3 13h1" />
<path stroke="#755821" d="M7 3h1M10 3h1M11 5h1M13 6h1M13 9h1" />
<path stroke="#6a501e" d="M8 3h2M13 3h1M10 4h2M12 5h1M10 6h1M12 6h1M13 7h1M8 8h1M13 8h1M6 10h1M4 12h1" />
<path stroke="#493615" d="M12 3h1M10 5h1M9 6h1M8 7h1M7 8h1M6 9h1M5 10h1M4 11h1M3 12h1M2 13h1" />
<path stroke="#20180a" d="M7 4h3M13 5h1M14 6h1M12 7h1M14 7h1M12 8h1M14 8h1M12 9h1M14 9h1M12 10h1M14 10h1M13 11h1" />
<path stroke="#281e0b" d="M13 4h1M11 6h1M10 7h1M9 8h1M8 9h1M7 10h1M6 11h1M5 12h1M4 13h1M2 14h2" />
</svg>