<svg xmlns="http://www.w3.org/2000/svg" viewBox="0 -0.5 16 16" shape-rendering="crispEdges">
<metadata>Made with Pixels to Svg https://codepen.io/shshaw/pen/XbxvNj</metadata>
<path stroke="#11727a" d="M6 2h4M5 3h1M10 3h1M4 4h1M3 5h1M3 6h1M2 7h1M2 8h1M2 9h1M2 10h1" />
<path stroke="#ffffff" d="M6 3h3M5 4h1M4 5h1M4 6h1M6 6h1M8 6h1M3 7h1M5 7h1M3 8h1M3 9h2" />
<path stroke="#d5fff6" d="M9 3h1M9 4h1M8 5h1M7 6h1M9 6h1M5 8h1M3 10h1" />
<path stroke="#4aedd9" d="M6 4h2M5 5h1M10 5h1M5 6h1M10 6h2M4 7h1M6 7h2M4 8h1M6 8h1M9 9h1M4 10h2M4 11h1M6 13h2" />
<path stroke="#a1fbe8" d="M8 4h1M6 5h2M9 5h1M8 7h2M7 8h3M6 9h3M11 12h1M8 13h2" />
<path stroke="#20c5b5" d="M10 4h1M11 5h1M11 7h1M11 8h1M5 9h1M10 10h2M6 11h4M11 11h1M6 12h4M10 13h1" />
<path stroke="#145e53" d="M11 4h1M12 5h1M12 6h1M13 7h1M13 8h1M13 9h1M13 10h1M3 11h1M12 11h1M3 12h1M12 12h1M4 13h1M11 13h1M5 14h6" />
<path stroke="#1aaaa7" d="M10 7h1M12 7h1M12 8h1M11 9h2M6 10h4M5 11h1M10 11h1M5 12h1M10 12h1" />
<path stroke="#1c919a" d="M10 8h1M10 9h1M12 10h1M5 13h1" />
<path stroke="#2ce0d8" d="M4 12h1" />
</svg>