<svg xmlns="http://www.w3.org/2000/svg" viewBox="0 -0.5 16 16" shape-rendering="crispEdges">
<metadata>Made with Pixels to Svg https://codepen.io/shshaw/pen/XbxvNj</metadata>
<path stroke="#5e5e5e" d="M10 2h2M7 3h3M4 4h3M1 5h3M0 6h1M0 7h1M0 8h1M0 9h1M0 10h1M1 11h1M2 12h1M3 13h2" />
<path stroke="#a8a8a8" d="M10 3h2M7 4h1M12 4h1M4 5h1M13 5h1M1 7h1M14 7h1M1 8h2M14 8h1M1 9h3M12 9h3M2 10h2M10 10h2M3 11h1M4 12h1" />
<path stroke="#727272" d="M12 3h1M13 4h1M14 5h1M15 6h1M13 7h1M11 8h2M8 9h4M6 10h4M6 11h2" />
<path stroke="#d8d8d8" d="M8 4h4M5 5h8M2 6h10M14 6h1M3 7h6M12 7h1M4 8h2M9 8h1M6 9h1M4 10h1M4 11h1" />
<path stroke="#ffffff" d="M1 6h1M12 6h2M2 7h1M9 7h3M3 8h1M6 8h3M4 9h2" />
<path stroke="#353535" d="M15 7h1M15 8h1M15 9h1M13 10h2M10 11h3M7 12h3M5 13h2" />
<path stroke="#828282" d="M10 8h1M13 8h1M7 9h1M1 10h1M5 10h1M12 10h1M2 11h1M5 11h1M8 11h2M3 12h1M5 12h1" />
<path stroke="#585858" d="M6 12h1" />
</svg>