<svg xmlns="http://www.w3.org/2000/svg" viewBox="0 -0.5 16 16" shape-rendering="crispEdges">
<metadata>Made with Pixels to Svg https://codepen.io/shshaw/pen/XbxvNj</metadata>
<path stroke="#797979" d="M0 0h1M2 2h1M11 3h1M10 4h2M0 5h2M8 5h2M0 6h1M13 7h1M11 8h2M6 9h2M4 10h2M15 10h1M14 11h1M5 13h2M12 13h1M0 14h2M3 14h2M10 14h2M15 14h1M0 15h2M9 15h1" />
<path stroke="#646464" d="M1 0h1M8 0h3M9 1h1M0 2h2M3 2h2M2 3h1M12 3h3M5 4h2M12 4h2M2 5h2M7 5h1M15 5h1M1 6h2M0 7h1M8 7h2M8 8h1M10 8h1M3 9h1M0 10h1M2 10h1M0 11h2M6 11h2M13 11h1M15 11h1M0 12h1M7 12h2M14 12h2M2 13h1M7 13h1M2 14h1M9 14h1M13 14h2M2 15h1M4 15h1M10 15h2M14 15h2" />
<path stroke="#515151" d="M2 0h4M11 0h2M14 0h2M0 1h1M10 1h2M14 1h1M5 2h1M1 3h1M3 3h2M15 3h1M3 4h1M14 4h1M4 5h2M10 5h1M13 5h2M3 6h1M8 6h2M15 6h1M1 7h1M10 7h1M14 7h2M0 8h1M2 8h1M9 8h1M13 8h1M15 8h1M8 9h2M11 9h1M1 10h1M3 10h1M6 10h1M8 11h1M1 12h1M9 12h1M13 12h1M8 13h1M12 14h1M3 15h1M5 15h2M8 15h1M12 15h2" />
<path stroke="#3d3d43" d="M6 0h2M13 0h1M1 1h1M4 1h2M12 1h2M15 1h1M11 2h1M14 2h2M0 3h1M4 4h1M15 4h1M7 6h1M14 6h1M2 7h2M1 8h1M14 8h1M0 9h2M10 9h1M12 9h1M15 9h1M7 10h2M11 10h1M2 11h1M9 11h1M12 11h1M0 13h2M9 13h1M14 13h2M5 14h1M8 14h1" />
<path stroke="#2f2f37" d="M2 1h2M6 1h3M9 2h2M0 4h1M6 5h1M11 5h2M4 6h3M13 6h1M7 7h1M2 9h1M13 9h2M9 10h2M12 10h1M3 11h3M10 11h2M13 13h1M7 15h1" />
<path stroke="#0a0a0a" d="M6 2h1M10 3h1M1 4h1M8 4h2M4 7h1M3 8h1M13 10h1M2 12h1M5 12h2M12 12h1M4 13h1M11 13h1" />
<path stroke="#2a2a2a" d="M7 2h2M13 2h1M6 3h2M2 4h1M10 6h1M12 6h1M5 7h1M11 7h1M4 8h1M6 8h1M5 9h1M14 10h1M4 12h1M11 12h1M3 13h1M10 13h1M6 14h1" />
<path stroke="#1f1f1f" d="M12 2h1M5 3h1M9 3h1M7 4h1M11 6h1M6 7h1M7 8h1M4 9h1M7 14h1" />
<path stroke="#494b3f" d="M8 3h1M12 7h1M5 8h1M3 12h1M10 12h1" />
</svg>