<svg xmlns="http://www.w3.org/2000/svg" viewBox="0 -0.5 16 16" shape-rendering="crispEdges">
<metadata>Made with Pixels to Svg https://codepen.io/shshaw/pen/XbxvNj</metadata>
<path stroke="#797979" d="M0 0h1M10 2h1M13 2h1M4 3h1M11 3h2M2 4h2M0 5h2M11 5h1M0 6h1M4 6h2M9 6h2M6 7h3M7 8h1M12 9h1M3 10h1M6 10h1M10 10h2M14 10h2M4 11h4M14 11h1M6 12h1M4 13h2M13 13h2M0 14h2M10 14h3M15 14h1M2 15h2" />
<path stroke="#646464" d="M1 0h1M8 0h3M9 1h1M0 2h2M9 3h2M13 3h2M12 4h2M3 5h1M15 5h1M1 6h2M0 7h1M9 7h1M8 8h1M7 9h1M0 10h1M2 10h1M0 11h2M15 11h1M0 12h1M7 12h1M15 12h1M6 13h2M9 14h1M13 14h2M0 15h2M4 15h1M9 15h3M14 15h2" />
<path stroke="#515151" d="M2 0h4M11 0h2M14 0h2M0 1h1M8 1h1M14 1h1M5 3h2M8 3h1M15 3h1M14 4h1M2 5h1M12 5h1M3 6h1M15 6h1M1 7h1M10 7h1M14 7h2M0 8h1M2 8h1M6 8h1M15 8h1M8 9h2M1 10h1M12 10h2M2 11h1M8 11h1M10 11h1M13 11h1M1 12h1M8 13h1M4 14h1M5 15h2M8 15h1M12 15h2" />
<path stroke="#3d3d43" d="M6 0h2M13 0h1M1 1h1M4 1h4M15 1h1M5 2h1M9 2h1M14 2h2M0 3h1M7 3h1M1 4h1M4 4h3M15 4h1M11 6h1M14 6h1M2 7h4M11 7h1M13 7h1M1 8h1M5 8h1M13 8h2M0 9h2M15 9h1M7 10h2M3 11h1M9 11h1M2 12h2M0 13h1M15 13h1M5 14h2M8 14h1" />
<path stroke="#2f2f37" d="M2 1h2M6 2h3M0 4h1M12 6h2M12 7h1M13 9h2M9 10h1M3 13h1M7 14h1M7 15h1" />
<path stroke="#77674f" d="M10 1h1M13 1h1M9 8h1M12 8h1M2 9h1M11 11h1M8 12h1M3 14h1" />
<path stroke="#887455" d="M11 1h2M2 2h1M4 2h1M11 2h1M1 3h1M7 4h2M11 4h1M4 5h1M13 5h1M3 8h1M10 8h1M12 11h1M4 12h1M9 12h1M14 12h1M1 13h1M2 14h1" />
<path stroke="#af8e77" d="M3 2h1M12 2h1M2 3h1M9 4h2M5 5h1M10 5h1M14 5h1M6 6h1M4 8h1M11 8h1M3 9h2M10 9h1M5 12h1M10 12h1M13 12h1M2 13h1M9 13h1M12 13h1" />
<path stroke="#d8af93" d="M3 3h1M6 5h2M9 5h1M7 6h2M5 9h2M11 9h1M4 10h1M11 12h2M10 13h1" />
<path stroke="#e2c0aa" d="M8 5h1M5 10h1M11 13h1" />
</svg>