<svg xmlns="http://www.w3.org/2000/svg" viewBox="0 -0.5 16 16" shape-rendering="crispEdges">
<metadata>Made with Pixels to Svg https://codepen.io/shshaw/pen/XbxvNj</metadata>
<path stroke="#797979" d="M0 0h1M4 3h1M12 3h1M2 4h2M10 4h2M0 5h2M0 6h1M6 8h2M15 8h1M3 9h3M13 9h2M1 10h2M14 10h2M5 11h3M14 11h1M11 13h2M0 14h2M6 14h1M9 14h2M15 14h1M0 15h2M4 15h2M9 15h1" />
<path stroke="#646464" d="M1 0h1M8 0h3M9 1h1M0 2h1M4 2h1M9 3h1M13 3h2M4 4h1M8 4h2M12 4h2M8 5h2M11 5h1M15 5h1M1 6h2M0 7h1M9 7h1M8 8h1M10 8h1M7 9h1M15 9h1M0 10h1M13 10h1M0 11h2M4 11h1M15 11h1M0 12h1M6 12h2M14 12h2M6 13h2M2 14h2M13 14h2M2 15h1M10 15h2M14 15h2" />
<path stroke="#515151" d="M2 0h4M11 0h2M14 0h2M0 1h1M8 1h1M14 1h1M5 2h2M1 3h1M8 3h1M15 3h1M7 4h1M14 4h1M2 5h1M10 5h1M12 5h3M9 6h1M15 6h1M10 7h1M15 7h1M9 8h1M11 8h1M6 9h1M8 9h1M3 10h1M5 10h2M2 11h1M13 11h1M1 12h1M13 12h1M8 13h1M11 14h2M3 15h1M6 15h1M8 15h1M12 15h2" />
<path stroke="#3d3d43" d="M6 0h2M13 0h1M1 1h1M4 1h4M12 1h2M15 1h1M12 2h1M14 2h2M0 3h1M5 3h3M1 4h1M15 4h1M3 5h1M10 6h2M14 6h1M1 7h1M11 7h1M0 8h1M3 8h1M12 8h1M0 9h1M11 9h2M4 10h1M7 10h1M12 10h1M3 11h1M2 12h2M0 13h3M14 13h2M8 14h1" />
<path stroke="#2f2f37" d="M2 1h2M10 1h2M1 2h1M7 2h3M13 2h1M0 4h1M5 4h1M4 5h1M12 6h2M2 7h1M12 7h1M9 9h2M8 10h1M4 12h2M3 13h1M13 13h1M7 14h1M7 15h1" />
<path stroke="#d9ffeb" d="M2 2h1M10 2h1M5 6h1M13 7h1M1 8h1M10 11h1M4 13h1" />
<path stroke="#17dd62" d="M3 2h1M11 2h1M2 3h1M10 3h1M14 7h1M2 8h1M13 8h1M1 9h1M5 13h1M4 14h1" />
<path stroke="#007b18" d="M3 3h1M11 3h1M6 6h1M5 7h1M14 8h1M2 9h1M8 11h1M11 11h1M8 12h1M10 12h1M5 14h1" />
<path stroke="#375b3e" d="M6 4h1M3 6h1M8 6h1M3 7h1M8 7h1M11 10h1M9 13h1" />
<path stroke="#41f384" d="M5 5h2M4 6h1M4 7h1M9 10h2M9 11h1" />
<path stroke="#1c9829" d="M7 5h1M7 6h1M6 7h1M5 8h1M12 11h1M11 12h1M10 13h1" />
<path stroke="#17c544" d="M7 7h1M4 8h1M9 12h1M12 12h1" />
</svg>