<svg xmlns="http://www.w3.org/2000/svg" viewBox="0 -0.5 16 16" shape-rendering="crispEdges">
<metadata>Made with Pixels to Svg https://codepen.io/shshaw/pen/XbxvNj</metadata>
<path stroke="#797979" d="M0 0h1M4 2h1M13 2h1M3 3h1M10 3h3M11 4h1M0 5h2M7 5h1M0 6h1M4 6h3M7 7h1M7 8h1M15 8h1M6 9h1M12 9h3M4 10h2M11 10h1M15 10h1M2 11h2M5 11h2M14 11h1M9 13h1M0 14h2M7 14h2M13 14h3M0 15h2M9 15h1" />
<path stroke="#646464" d="M1 0h1M8 0h3M9 1h1M0 2h1M2 3h1M9 3h1M13 3h2M9 4h2M12 4h2M8 5h2M15 5h1M1 6h2M0 7h1M6 7h1M8 7h1M8 8h1M7 9h1M0 10h1M14 10h1M0 11h2M4 11h1M15 11h1M0 12h1M14 12h2M2 14h2M9 14h2M2 15h1M4 15h1M10 15h2M14 15h2" />
<path stroke="#515151" d="M2 0h4M11 0h2M14 0h2M0 1h1M8 1h1M10 1h1M14 1h1M1 3h1M4 3h1M8 3h1M15 3h1M2 4h2M14 4h1M2 5h1M14 5h1M3 6h1M8 6h1M15 6h1M1 7h1M14 7h2M0 8h1M6 8h1M9 8h1M8 9h2M1 10h1M6 10h1M12 10h2M8 11h1M10 11h1M13 11h1M1 12h1M4 12h1M13 12h1M5 13h1M4 14h1M11 14h2M3 15h1M5 15h2M8 15h1M12 15h2" />
<path stroke="#3d3d43" d="M6 0h2M13 0h1M1 1h1M4 1h4M13 1h1M15 1h1M5 2h1M8 2h2M14 2h2M0 3h1M7 3h1M1 4h1M15 4h1M10 5h1M13 5h1M7 6h1M9 6h1M14 6h1M2 7h1M5 7h1M1 8h1M5 8h1M0 9h1M10 9h1M15 9h1M7 10h2M9 11h1M11 11h2M2 12h2M10 12h3M0 13h2M11 13h1M15 13h1M5 14h2" />
<path stroke="#2f2f37" d="M2 1h2M11 1h2M1 2h1M6 2h2M10 2h1M0 4h1M11 5h2M10 6h1M13 6h1M3 7h2M2 8h1M9 10h2M4 13h1M10 13h1M12 13h1M7 15h1" />
<path stroke="#3a7663" d="M2 2h2M5 3h2M4 4h1M3 8h1M11 9h1M2 10h1M5 12h1M2 13h1M6 13h1M8 13h1M13 13h1" />
<path stroke="#e0734d" d="M11 2h1M6 4h1M5 5h1M13 8h1M7 12h1" />
<path stroke="#c16746" d="M12 2h1M7 4h1M4 5h1M13 7h1M14 8h1M7 11h1M9 12h1" />
<path stroke="#818058" d="M5 4h1M8 4h1M3 5h1M11 6h2M4 8h1M12 8h1M5 9h1M6 12h1M3 13h1M7 13h1" />
<path stroke="#f38268" d="M6 5h1M8 12h1" />
<path stroke="#3a685a" d="M9 7h1M10 8h1" />
<path stroke="#599581" d="M10 7h1M12 7h1M11 8h1M1 9h1M4 9h1M3 10h1" />
<path stroke="#4fba98" d="M11 7h1M2 9h2M14 13h1" />
</svg>