<svg xmlns="http://www.w3.org/2000/svg" viewBox="0 -0.5 16 16" shape-rendering="crispEdges">
<metadata>Made with Pixels to Svg https://codepen.io/shshaw/pen/XbxvNj</metadata>
<path stroke="#4bede6" d="M0 0h4M6 0h3M13 0h2M0 1h1M0 2h1M9 2h1M12 2h1M0 3h1M9 3h3M8 4h2M7 5h2M13 5h1M0 6h1M12 6h1M0 7h1M11 7h2M14 7h1M11 8h3M12 9h1M14 10h1M1 11h1M7 11h2M10 11h1M14 11h1M1 12h1M6 12h1M9 12h1M13 12h1M5 13h1M8 13h1M12 13h2M1 14h1M3 14h2M7 14h1M10 14h2" />
<path stroke="#3de0e5" d="M4 0h2M9 0h4M10 2h2M0 4h1M0 5h1M14 5h1M13 6h2M13 7h1M0 8h1M0 9h1M0 10h1M0 11h1M0 12h1M7 12h2M0 13h2M6 13h2M0 14h1M2 14h1M5 14h2" />
<path stroke="#15c2c6" d="M15 0h1M15 1h1M15 2h1M15 3h1M15 4h1M15 8h1M15 9h1M15 12h1M15 13h1M0 15h2M3 15h2M8 15h2M12 15h2" />
<path stroke="#d5fff6" d="M1 1h1M6 1h3M13 1h2M5 2h1M14 2h1M4 3h1M1 6h1M1 7h1" />
<path stroke="#ffffff" d="M2 1h2M1 2h1M1 3h1" />
<path stroke="#9efeeb" d="M4 1h2M9 1h2M6 2h2M5 3h2M14 3h1M1 4h1M3 4h3M14 4h1M1 5h4M10 5h2M2 6h2M9 6h2M2 7h1M1 8h1M1 9h1M5 10h2M12 10h1M4 11h2M11 11h2M3 12h2M14 14h1" />
<path stroke="#65f5e3" d="M11 1h2M2 2h2M8 2h1M2 3h1M8 3h1M7 4h1M10 4h1M13 4h1M6 5h1M9 5h1M12 5h1M7 6h2M11 6h1M6 7h2M10 7h1M5 8h2M9 8h2M14 8h1M4 9h2M8 9h4M14 9h1M1 10h1M3 10h2M7 10h5M2 11h2M6 11h1M9 11h1M13 11h1M2 12h1M5 12h1M12 12h1M14 12h1M4 13h1M9 13h3M8 14h2M12 14h1" />
<path stroke="#70fbf0" d="M4 2h1M13 2h1M3 3h1M7 3h1M12 3h2M2 4h1M6 4h1M11 4h2M5 5h1M4 6h3M3 7h3M8 7h2M2 8h3M7 8h2M2 9h2M6 9h2M13 9h1M2 10h1M13 10h1M10 12h2M2 13h2M14 13h1M13 14h1" />
<path stroke="#0ebabd" d="M15 5h1M15 6h1M15 7h1M15 10h1M15 11h1M15 14h1M2 15h1M5 15h3M10 15h2M14 15h2" />
</svg>