<svg xmlns="http://www.w3.org/2000/svg" viewBox="0 -0.5 16 16" shape-rendering="crispEdges">
<metadata>Made with Pixels to Svg https://codepen.io/shshaw/pen/XbxvNj</metadata>
<path stroke="#17c544" d="M0 0h15M0 1h1M0 2h1M2 2h6M9 2h4M0 3h1M2 3h1M0 4h1M2 4h1M4 4h7M0 5h1M2 5h1M4 5h1M0 6h1M2 6h1M4 6h1M14 6h1M0 7h1M2 7h1M4 7h1M14 7h1M0 8h1M2 8h1M4 8h1M8 8h1M10 8h1M12 8h1M0 9h1M2 9h1M4 9h1M12 9h1M0 10h1M4 10h1M8 10h1M14 10h1M0 11h1M14 11h1M0 12h1M2 12h1M6 12h4M0 13h1M0 14h1M2 14h1M5 14h2M10 14h2" />
<path stroke="#1aae35" d="M15 0h1M8 2h1M13 2h1M13 3h1M11 4h1M13 4h1M11 5h1M13 5h1M11 6h1M13 6h1M11 7h1M13 7h1M9 8h1M11 8h1M13 8h1M8 9h2M11 9h1M13 9h1M2 10h1M11 10h1M13 10h1M2 11h1M4 11h8M13 11h1M13 12h1M2 13h12M0 15h1M15 15h1" />
<path stroke="#82f6ad" d="M1 1h5M7 1h1M9 1h2M1 2h1M4 3h3M1 4h1M3 4h1M14 4h1M1 5h1M3 5h1M5 5h3M10 5h1M3 6h1M5 6h1M5 7h1M7 7h1M1 8h1M5 10h1M3 12h2M14 14h1" />
<path stroke="#41f384" d="M6 1h1M8 1h1M13 1h2M14 2h1M1 3h1M3 3h1M7 3h1M12 3h1M14 3h1M12 4h1M8 5h2M1 6h1M6 6h2M10 6h1M1 7h1M3 7h1M6 7h1M10 7h1M3 8h1M5 8h1M1 9h1M3 9h1M5 9h1M1 10h1M6 10h1M12 10h1M12 11h1M1 12h1M10 12h2M14 13h1M13 14h1" />
<path stroke="#17dd62" d="M11 1h2M8 3h4M12 5h1M14 5h1M8 6h2M12 6h1M8 7h2M12 7h1M6 8h2M14 8h1M6 9h2M10 9h1M14 9h1M3 10h1M7 10h1M9 10h2M1 11h1M3 11h1M5 12h1M12 12h1M14 12h1M1 13h1M1 14h1M3 14h2M7 14h3M12 14h1" />
<path stroke="#1c9829" d="M15 1h1M15 2h1M15 3h1M15 4h1M15 5h1M15 6h1M15 7h1M15 8h1M15 9h1M15 10h1M15 11h1M15 12h1M15 13h1M15 14h1M1 15h14" />
</svg>