<svg xmlns="http://www.w3.org/2000/svg" viewBox="0 -0.5 16 16" shape-rendering="crispEdges">
<metadata>Made with Pixels to Svg https://codepen.io/shshaw/pen/XbxvNj</metadata>
<path stroke="#8f8f8f" d="M0 0h4M5 1h4M8 3h2M12 3h1M4 4h1M9 4h4M1 5h1M3 5h2M15 5h1M6 8h2M3 9h3M8 9h1M13 9h2M1 10h1M5 10h1M6 11h1M15 11h1M0 13h2M11 13h2M15 13h1M6 14h1M9 14h2M13 14h3M4 15h2M9 15h3" />
<path stroke="#7f7f7f" d="M4 0h1M7 0h1M12 0h4M0 1h2M4 1h1M9 1h1M14 1h1M0 2h1M6 2h2M12 2h4M0 3h2M4 3h2M7 3h1M1 4h3M7 4h2M14 4h2M0 5h1M2 5h1M1 6h1M9 6h1M11 6h2M15 6h1M15 7h1M3 8h1M10 8h3M0 9h1M6 9h2M9 9h1M15 9h1M3 10h2M6 10h1M8 10h1M0 11h6M7 11h1M13 11h2M0 12h1M6 12h1M2 13h1M6 13h1M0 14h1M3 14h1M7 14h1M11 14h2M0 15h4M8 15h1M12 15h1M14 15h2" />
<path stroke="#747474" d="M5 0h2M8 0h1M10 0h2M13 1h1M15 1h1M4 2h2M8 2h1M13 3h3M0 4h1M13 4h1M9 5h2M12 5h1M14 5h1M0 6h1M10 6h1M0 7h1M10 7h2M8 8h2M15 8h1M2 10h1M13 10h3M1 12h3M7 12h1M13 12h1M15 12h1M7 13h2M13 13h2M1 14h2M6 15h2M13 15h1" />
<path stroke="#686868" d="M9 0h1M12 1h1M11 5h1M13 5h1M2 6h1M12 9h1M0 10h1M7 10h1M12 10h1M14 12h1M8 14h1" />
<path stroke="#526b50" d="M2 1h2M10 1h2M1 2h1M9 2h1M6 3h1M5 4h1M8 5h1M13 6h2M1 7h2M9 7h1M12 7h1M0 8h1M10 9h2M4 12h2M3 13h1" />
<path stroke="#d9ffeb" d="M2 2h1M10 2h1M5 6h1M13 7h1M1 8h1M10 11h1M4 13h1" />
<path stroke="#17dd62" d="M3 2h1M11 2h1M2 3h1M10 3h1M14 7h1M2 8h1M13 8h1M1 9h1M5 13h1M4 14h1" />
<path stroke="#007b18" d="M3 3h1M11 3h1M6 6h1M5 7h1M14 8h1M2 9h1M8 11h1M11 11h1M8 12h1M10 12h1M5 14h1" />
<path stroke="#375b3e" d="M6 4h1M3 6h1M8 6h1M3 7h1M8 7h1M11 10h1M9 13h1" />
<path stroke="#41f384" d="M5 5h2M4 6h1M4 7h1M9 10h2M9 11h1" />
<path stroke="#1c9829" d="M7 5h1M7 6h1M6 7h1M5 8h1M12 11h1M11 12h1M10 13h1" />
<path stroke="#17c544" d="M7 7h1M4 8h1M9 12h1M12 12h1" />
</svg>