<svg xmlns="http://www.w3.org/2000/svg" viewBox="0 -0.5 16 16" shape-rendering="crispEdges">
<metadata>Made with Pixels to Svg https://codepen.io/shshaw/pen/XbxvNj</metadata>
<path stroke="#1c1c1e" d="M5 2h4M4 3h1M9 3h1M3 4h1M10 4h1M3 5h1M11 5h1M3 6h1M12 6h1M2 7h1M2 8h1M2 9h1M2 10h1M2 11h1" />
<path stroke="#2e2e2e" d="M5 3h1M8 3h1M7 5h1M9 5h1M4 7h1M10 7h1M3 8h1M7 8h3M4 9h3M10 9h1M8 10h1" />
<path stroke="#323232" d="M6 3h2M7 4h1M6 5h1M8 5h1M10 6h1M12 7h1M5 8h1" />
<path stroke="#252525" d="M4 4h1M8 4h2M5 5h1M10 5h1M6 6h1M11 6h1M3 7h1M5 7h1M7 7h1M11 7h1M6 8h1M10 8h1M12 8h1M3 9h1M7 9h3M3 10h3M7 10h1M10 10h1M12 10h1M5 11h1M7 12h1" />
<path stroke="#363636" d="M5 4h1M4 5h1M7 6h1M9 6h1M8 7h2" />
<path stroke="#393e46" d="M6 4h1M8 6h1M4 8h1" />
<path stroke="#261e24" d="M4 6h2M6 7h1M11 8h1M11 9h3M6 10h1M9 10h1M4 11h1M6 11h5M12 11h1M6 12h1M9 12h2" />
<path stroke="#101015" d="M13 7h1M13 8h1M14 9h1M14 10h1M14 11h1M3 12h1M13 12h1M4 13h1M9 13h4M5 14h4" />
<path stroke="#1f1721" d="M11 10h1M13 10h1M3 11h1M11 11h1M13 11h1M4 12h2M8 12h1M11 12h2M5 13h4" />
</svg>