<svg xmlns="http://www.w3.org/2000/svg" viewBox="0 -0.5 16 16" shape-rendering="crispEdges">
<metadata>Made with Pixels to Svg https://codepen.io/shshaw/pen/XbxvNj</metadata>
<path stroke="#9c4529" d="M10 2h2M7 3h3M4 4h3M1 5h3M0 6h1M0 7h1M0 8h1M0 9h1M0 10h1M1 11h1M2 12h1M3 13h2" />
<path stroke="#c15a36" d="M10 3h2M8 4h1M11 4h1M4 5h1M7 5h1M10 5h1M13 5h1M2 6h1M6 6h1M9 6h1M5 7h3M12 7h1M2 8h1M10 8h2M3 9h1M6 9h1M9 9h2M14 9h1M5 10h1M8 10h2M2 11h1M7 11h2M6 12h1" />
<path stroke="#8a4129" d="M12 3h1M13 4h1M14 5h1M15 6h1M13 8h1M12 9h2M11 10h1" />
<path stroke="#e77c56" d="M7 4h1M12 4h1M5 5h2M11 5h2M3 6h3M10 6h2M14 6h1M1 7h1M3 7h2M8 7h1M1 8h1M4 8h2M9 8h1M1 9h1M1 10h1M4 12h1" />
<path stroke="#9c4e31" d="M9 4h2M8 5h2M7 6h2M13 7h2M12 8h1M14 8h1M2 9h1M7 9h2M11 9h1M2 10h2M6 10h2M10 10h1M12 10h1M3 11h1M5 11h2M9 11h1M3 12h1M5 12h1" />
<path stroke="#fc9982" d="M1 6h1M12 6h2M2 7h1M9 7h3M3 8h1M6 8h3M5 9h1M4 10h1M4 11h1" />
<path stroke="#6d3421" d="M15 7h1M15 8h1M15 9h1M13 10h2M10 11h3M7 12h3M5 13h2" />
<path stroke="#fbc3b6" d="M4 9h1" />
</svg>