<svg xmlns="http://www.w3.org/2000/svg" viewBox="0 -0.5 16 16" shape-rendering="crispEdges">
<metadata>Made with Pixels to Svg https://codepen.io/shshaw/pen/XbxvNj</metadata>
<path stroke="#8f8f8f" d="M0 0h4M1 5h2M6 5h3M15 5h1M1 6h1M14 7h2M0 8h1M1 9h1M9 9h2M2 10h1M7 12h2M0 13h1M14 14h2M6 15h1M9 15h2" />
<path stroke="#7f7f7f" d="M4 0h1M7 0h1M12 0h4M0 1h2M3 1h1M5 1h1M9 1h2M14 1h1M0 2h1M11 2h1M14 2h2M0 3h1M4 3h1M11 3h2M14 4h2M0 5h1M3 5h1M5 5h1M2 6h1M8 6h1M14 6h2M8 7h2M13 7h1M2 8h1M8 8h1M10 8h1M14 8h1M0 9h1M11 9h2M15 9h1M1 10h1M6 10h1M8 10h1M0 11h2M6 11h2M9 11h1M0 12h1M15 13h1M0 14h1M4 14h2M8 14h2M11 14h3M0 15h2M5 15h1M8 15h1M11 15h2M14 15h2" />
<path stroke="#747474" d="M5 0h2M8 0h1M10 0h2M2 1h1M4 1h1M15 1h1M1 2h1M4 2h1M10 2h1M2 3h2M13 3h3M0 4h1M3 4h3M11 4h3M4 5h1M9 5h2M14 5h1M0 6h1M3 6h1M5 6h3M9 6h1M0 7h1M2 7h1M1 8h1M9 8h1M11 8h3M15 8h1M2 9h1M7 9h2M3 10h1M7 10h1M9 10h3M4 11h1M8 11h1M12 11h4M13 12h1M1 13h1M6 13h3M13 13h2M1 14h3M2 15h3M7 15h1M13 15h1" />
<path stroke="#686868" d="M9 0h1M11 1h2M2 2h2M13 5h1M0 10h1M15 10h1M14 12h2" />
<path stroke="#5c5c5c" d="M6 1h3M13 1h1M5 2h1M9 2h1M1 3h1M6 4h1M10 4h1M11 5h2M4 6h1M13 6h1M1 7h1M3 7h1M7 7h1M10 7h1M3 9h1M6 9h1M13 9h2M4 10h2M12 10h1M2 11h2M5 11h1M10 11h2M1 12h1M9 12h1M2 13h1M5 13h1M9 13h1M12 13h1M10 14h1" />
<path stroke="#252525" d="M6 2h1M10 3h1M1 4h1M8 4h2M4 7h1M3 8h1M13 10h1M2 12h1M5 12h2M12 12h1M4 13h1M11 13h1" />
<path stroke="#393c36" d="M7 2h1M6 3h1M10 6h1M12 6h1M5 7h1M11 7h1M4 8h1M14 10h1M11 12h1M3 13h1" />
<path stroke="#363636" d="M8 2h1M13 2h1M7 3h1M2 4h1M6 8h1M5 9h1M4 12h1M10 13h1M6 14h1" />
<path stroke="#2e2e2e" d="M12 2h1M5 3h1M9 3h1M7 4h1M11 6h1M6 7h1M7 8h1M4 9h1M7 14h1" />
<path stroke="#494b3f" d="M8 3h1M12 7h1M5 8h1M3 12h1M10 12h1" />
</svg>