<svg xmlns="http://www.w3.org/2000/svg" viewBox="0 -0.5 16 16" shape-rendering="crispEdges">
<metadata>Made with Pixels to Svg https://codepen.io/shshaw/pen/XbxvNj</metadata>
<path stroke="#1f1e1e" d="M0 0h2M14 1h2M6 3h1M4 4h2M2 6h1M9 7h1M11 7h1M7 8h2M6 9h1M12 9h1M0 11h1M15 11h1M6 12h1M8 12h1M12 12h2M5 13h1M11 13h1M4 14h1" />
<path stroke="#151515" d="M2 0h2M5 0h2M9 0h2M15 0h1M0 1h3M4 1h1M9 1h1M13 1h1M0 2h1M6 2h2M12 2h4M4 3h1M7 3h4M12 3h2M3 4h1M6 4h3M12 4h1M0 5h1M2 5h5M14 5h2M3 6h2M11 6h5M1 7h3M7 7h2M12 7h2M1 8h1M6 8h1M9 8h3M3 9h1M5 9h1M7 9h2M13 9h1M0 10h1M2 10h1M4 10h3M11 10h2M15 10h1M1 11h1M4 11h1M7 11h2M13 11h2M3 12h1M9 12h1M11 12h1M14 12h2M4 13h1M7 13h1M10 13h1M12 13h2M3 14h1M5 14h1M10 14h3M1 15h4M6 15h2M9 15h3" />
<path stroke="#0d0d0d" d="M4 0h1M11 0h1M14 0h1M3 1h1M5 1h1M10 1h1M12 1h1M1 2h1M5 2h1M0 3h1M3 3h1M14 3h1M2 4h1M9 4h1M13 4h1M7 5h1M13 5h1M1 6h1M5 6h2M9 6h2M4 7h1M6 7h1M14 7h1M2 8h2M5 8h1M12 8h1M2 9h1M4 9h1M9 9h2M1 10h1M3 10h1M7 10h1M13 10h2M2 11h1M5 11h2M9 11h1M12 11h1M4 12h2M10 12h1M3 13h1M14 13h1M2 14h1M6 14h1M9 14h1M13 14h1M0 15h1M5 15h1M8 15h1M12 15h1" />
<path stroke="#050505" d="M7 0h2M12 0h2M6 1h3M11 1h1M2 2h3M8 2h4M1 3h2M11 3h1M15 3h1M0 4h2M10 4h2M14 4h2M1 5h1M8 5h5M0 6h1M7 6h2M0 7h1M5 7h1M15 7h1M0 8h1M4 8h1M13 8h3M0 9h2M11 9h1M14 9h2M8 10h3M3 11h1M10 11h2M0 12h3M0 13h3M8 13h2M15 13h1M0 14h2M7 14h2M14 14h2M13 15h3" />
<path stroke="#292828" d="M5 3h1M10 7h1M7 12h1M6 13h1" />
</svg>