<svg xmlns="http://www.w3.org/2000/svg" viewBox="0 -0.5 16 16" shape-rendering="crispEdges">
<metadata>Made with Pixels to Svg https://codepen.io/shshaw/pen/XbxvNj</metadata>
<path stroke="#e3826c" d="M0 0h3M4 0h1M7 0h5M0 1h1M8 1h1M0 2h1M2 2h1M7 2h1M12 2h1M0 3h1M6 3h1M0 4h1M0 5h1M0 6h1M3 6h1M0 7h1M2 7h1M0 8h2M0 9h1M0 10h1M14 10h1M0 11h1M13 11h1M0 12h1M2 12h1M12 12h1M0 13h1M0 14h1" />
<path stroke="#d67b5b" d="M3 0h1M5 0h2M12 0h1M7 1h1M9 1h3M6 2h1M8 2h3M5 3h1M7 3h1M9 3h1M4 4h3M3 5h3M2 6h1M4 6h1M1 7h1M3 7h1M2 8h1M1 9h1M14 9h1M13 10h1M12 11h1M14 11h1M11 12h1M10 13h2M9 14h3M0 15h1" />
<path stroke="#c87456" d="M13 0h1M1 1h2M5 1h2M1 2h1M4 2h2M4 3h1M8 3h1M2 4h2M7 4h2M1 5h2M6 5h2M1 6h1M5 6h2M4 7h2M14 7h1M3 8h2M13 8h2M2 9h2M12 9h2M1 10h2M11 10h2M1 11h1M10 11h2M9 12h2M14 12h1M8 13h2M7 14h2M12 14h1" />
<path stroke="#c26b4c" d="M14 0h1M3 1h2M12 1h2M11 2h1M1 3h1M10 3h2M1 4h1M9 4h2M14 4h1M8 5h2M13 5h1M7 6h2M12 6h1M6 7h2M11 7h2M5 8h1M10 8h2M4 9h1M9 9h3M3 10h1M8 10h3M2 11h1M7 11h2M1 12h1M6 12h2M5 13h1M14 13h1M4 14h1M13 14h2" />
<path stroke="#a75a40" d="M15 0h1M11 4h2M10 5h1M12 5h1M9 6h1M11 6h1M8 7h1M10 7h1M7 8h1M9 8h1M7 9h2M6 10h1M4 12h1M1 14h1M2 15h1M8 15h3" />
<path stroke="#b26247" d="M14 1h1M3 2h1M13 2h2M2 3h1M12 3h1M14 3h1M13 4h1M14 5h1M13 6h2M13 7h1M6 8h1M12 8h1M5 9h2M4 10h2M7 10h1M3 11h4M9 11h1M3 12h1M5 12h1M8 12h1M13 12h1M1 13h2M4 13h1M6 13h2M12 13h1M3 14h1M5 14h2" />
<path stroke="#9a5038" d="M15 1h1M15 2h1M3 3h1M13 3h1M11 5h1M10 6h1M9 7h1M8 8h1M15 9h1M15 10h1M15 11h1M3 13h1M13 13h1M2 14h1M15 14h1M1 15h1M3 15h2M6 15h1M11 15h2M14 15h2" />
<path stroke="#904931" d="M15 3h1M15 4h1M15 5h1M15 6h1M15 7h1M15 8h1M15 12h1M15 13h1M5 15h1M7 15h1M13 15h1" />
</svg>