<svg xmlns="http://www.w3.org/2000/svg" viewBox="0 -0.5 16 16" shape-rendering="crispEdges">
<metadata>Made with Pixels to Svg https://codepen.io/shshaw/pen/XbxvNj</metadata>
<path stroke="#8f8f8f" d="M0 0h4M5 0h2M13 2h1M2 3h1M9 3h1M11 3h1M9 4h1M1 5h1M8 5h1M15 5h1M4 6h1M7 6h1M0 8h2M8 8h2M7 9h1M10 9h1M14 9h1M1 10h1M5 10h1M11 10h1M2 11h1M12 11h1M0 13h2M5 13h1M10 13h1M1 14h1M4 14h1M6 14h1M9 14h1M12 14h2M15 14h1M7 15h1M13 15h2" />
<path stroke="#7f7f7f" d="M4 0h1M7 0h1M12 0h2M15 0h1M0 1h2M3 1h1M6 1h5M14 1h2M0 2h1M0 3h2M10 3h1M13 3h1M15 3h1M10 4h2M14 4h2M0 5h1M1 6h3M15 6h1M7 7h2M15 7h1M7 8h1M0 9h1M6 9h1M8 9h1M15 9h1M6 10h1M9 10h2M13 10h2M0 11h2M4 11h1M10 11h2M13 11h1M0 12h1M15 12h1M11 13h1M0 14h1M5 14h1M10 14h2M14 14h1M0 15h3M4 15h1M6 15h1M8 15h5M15 15h1" />
<path stroke="#747474" d="M8 0h1M10 0h2M14 0h1M2 1h1M4 1h2M13 1h1M1 2h1M10 2h1M14 2h2M3 3h1M14 3h1M0 4h3M12 4h2M9 5h2M14 5h1M0 6h1M8 6h1M14 6h1M0 7h1M2 7h1M6 7h1M15 8h1M9 9h1M0 10h1M15 10h1M14 11h2M1 12h3M10 12h1M12 12h1M15 13h1M3 15h1M5 15h1" />
<path stroke="#686868" d="M9 0h1M11 1h2M4 2h1M7 2h3M8 3h1M2 5h1M13 5h1M9 6h1M1 7h1M5 7h1M14 7h1M2 8h1M6 8h1M8 10h1M5 11h2M9 11h1M4 12h1M11 12h1M13 12h2M12 13h1" />
<path stroke="#3a7663" d="M2 2h2M5 3h2M4 4h1M3 8h1M11 9h1M2 10h1M5 12h1M2 13h1M6 13h1M8 13h1M13 13h1" />
<path stroke="#5c5c5c" d="M5 2h2M4 3h1M7 3h1M3 4h1M11 5h2M10 6h1M13 6h1M3 7h2M5 8h1M7 10h1M8 11h1" />
<path stroke="#e0734d" d="M11 2h1M6 4h1M5 5h1M13 8h1M7 12h1" />
<path stroke="#c16746" d="M12 2h1M7 4h1M4 5h1M13 7h1M14 8h1M7 11h1M9 12h1" />
<path stroke="#a2a2a2" d="M12 3h1M7 5h1M5 6h2M12 9h2M4 10h1M12 10h1M3 11h1M4 13h1M9 13h1M2 14h2M7 14h2" />
<path stroke="#818058" d="M5 4h1M8 4h1M3 5h1M11 6h2M4 8h1M12 8h1M5 9h1M6 12h1M3 13h1M7 13h1" />
<path stroke="#f38268" d="M6 5h1M8 12h1" />
<path stroke="#3a685a" d="M9 7h1M10 8h1" />
<path stroke="#599581" d="M10 7h1M12 7h1M11 8h1M1 9h1M4 9h1M3 10h1" />
<path stroke="#4fba98" d="M11 7h1M2 9h2M14 13h1" />
</svg>