<svg xmlns="http://www.w3.org/2000/svg" viewBox="0 -0.5 16 16" shape-rendering="crispEdges">
<metadata>Made with Pixels to Svg https://codepen.io/shshaw/pen/XbxvNj</metadata>
<path stroke="#8f8f8f" d="M0 0h1M3 0h1M13 0h3M5 1h4M5 2h1M0 3h3M5 3h1M10 3h1M13 3h1M7 4h1M12 4h1M1 5h1M15 5h1M2 6h1M0 7h1M3 7h1M10 7h1M13 7h1M4 8h1M14 8h1M12 9h1M7 10h1M10 10h1M5 11h4M13 11h2M2 12h1M6 12h1M14 12h1M0 13h2M13 13h1M4 14h3M9 14h1M7 15h1M14 15h2" />
<path stroke="#7f7f7f" d="M1 0h2M4 0h1M7 0h1M12 0h1M0 1h2M3 1h1M9 1h2M15 1h1M0 2h1M6 2h1M14 2h2M3 3h1M11 3h1M1 4h3M9 4h1M11 4h1M14 4h2M0 5h1M2 5h1M8 5h1M9 6h1M12 6h4M12 7h1M5 8h1M11 8h3M0 9h1M3 9h1M5 9h1M15 9h1M1 10h1M3 10h1M0 11h5M15 11h1M0 12h1M5 12h1M7 13h1M14 13h2M0 14h1M7 14h2M11 14h1M15 14h1M0 15h6M8 15h6" />
<path stroke="#747474" d="M5 0h2M8 0h1M10 0h2M2 1h1M11 1h1M14 1h1M1 2h1M9 2h2M14 3h2M0 4h1M4 4h1M10 4h1M13 4h1M3 5h1M9 5h1M12 5h1M14 5h1M0 6h2M6 8h1M10 8h1M15 8h1M6 9h1M2 10h1M5 10h1M13 10h3M9 11h1M1 12h1M7 12h1M15 12h1M6 13h1M1 14h2M12 14h3M6 15h1" />
<path stroke="#676767" d="M9 0h1M4 1h1M12 1h2M2 2h2M7 2h2M11 2h1M6 3h1M5 4h2M4 5h1M7 5h1M13 5h1M1 7h2M8 7h2M0 8h1M7 8h1M4 9h1M0 10h1M6 10h1M11 10h2M10 11h1M3 12h2M5 13h1" />
<path stroke="#1ed0d6" d="M4 2h1M5 6h2M10 6h1M2 8h1M8 9h1M4 10h1M11 12h2M10 13h1" />
<path stroke="#77e7d1" d="M12 2h1M7 3h1M6 5h1M11 5h1M4 6h1M1 8h1M9 8h1M7 9h1M11 11h1M8 12h1M10 12h1M3 13h1" />
<path stroke="#239698" d="M13 2h1M8 3h1M7 6h1M11 6h1M9 9h2M12 11h1M13 12h1M4 13h1M9 13h1" />
<path stroke="#8dadb1" d="M4 3h1M9 3h1M12 3h1M8 4h1M8 6h1M4 7h1M6 7h2M11 7h1M3 8h1M1 9h2M11 9h1M8 10h2M2 13h1M11 13h2M3 14h1M10 14h1" />
<path stroke="#d5fff6" d="M5 5h1M10 5h1M3 6h1M8 8h1M9 12h1" />
<path stroke="#a2a2a2" d="M5 7h1M14 7h2M13 9h2M8 13h1" />
</svg>