<svg xmlns="http://www.w3.org/2000/svg" viewBox="0 -0.5 16 16" shape-rendering="crispEdges">
<metadata>Made with Pixels to Svg https://codepen.io/shshaw/pen/XbxvNj</metadata>
<path stroke="#8f8f8f" d="M0 0h1M14 0h2M7 1h2M4 3h1M1 4h3M1 5h1M15 5h1M3 6h3M9 6h1M13 6h2M6 7h3M0 8h2M1 9h1M7 9h1M9 9h1M12 9h3M2 10h2M6 10h1M10 10h2M4 11h2M7 11h1M13 11h1M15 11h1M6 12h1M0 13h1M5 13h1M8 13h1M13 13h2M1 14h1M9 14h4M2 15h2M10 15h2" />
<path stroke="#7f7f7f" d="M1 0h4M7 0h1M0 1h2M5 1h2M9 1h1M14 1h1M0 2h1M6 2h1M10 2h1M13 2h3M0 3h1M5 3h1M11 3h2M15 4h1M0 5h1M2 5h2M11 5h1M1 6h2M10 6h1M12 6h1M15 6h1M2 7h1M9 7h1M13 7h3M8 8h1M14 8h1M0 9h1M8 9h1M15 9h1M1 10h1M9 10h1M12 10h1M0 11h4M6 11h1M8 11h3M14 11h1M0 12h1M4 13h1M6 13h1M15 13h1M0 14h1M5 14h4M13 14h3M0 15h2M4 15h2M8 15h2M12 15h1M14 15h2" />
<path stroke="#747474" d="M5 0h2M8 0h1M10 0h4M2 1h1M15 1h1M1 2h1M5 2h1M8 2h2M6 3h1M10 3h1M13 3h3M0 4h1M4 4h1M14 4h1M12 5h1M0 6h1M11 6h1M0 7h2M5 7h1M10 7h1M7 8h1M13 8h1M15 8h1M8 10h1M13 10h3M1 12h1M3 12h1M7 12h1M15 12h1M3 13h1M7 13h1M4 14h1M6 15h2M13 15h1" />
<path stroke="#686868" d="M9 0h1M3 1h2M7 2h1M7 3h3M5 4h2M12 4h2M3 7h2M11 7h2M2 8h1M5 8h2M0 10h1M7 10h1M2 12h1" />
<path stroke="#77674f" d="M10 1h1M13 1h1M9 8h1M12 8h1M2 9h1M11 11h1M8 12h1M3 14h1" />
<path stroke="#887455" d="M11 1h2M2 2h1M4 2h1M11 2h1M1 3h1M7 4h2M11 4h1M4 5h1M13 5h1M3 8h1M10 8h1M12 11h1M4 12h1M9 12h1M14 12h1M1 13h1M2 14h1" />
<path stroke="#af8e77" d="M3 2h1M12 2h1M2 3h1M9 4h2M5 5h1M10 5h1M14 5h1M6 6h1M4 8h1M11 8h1M3 9h2M10 9h1M5 12h1M10 12h1M13 12h1M2 13h1M9 13h1M12 13h1" />
<path stroke="#d8af93" d="M3 3h1M6 5h2M9 5h1M7 6h2M5 9h2M11 9h1M4 10h1M11 12h2M10 13h1" />
<path stroke="#e2c0aa" d="M8 5h1M5 10h1M11 13h1" />
</svg>