<svg xmlns="http://www.w3.org/2000/svg" viewBox="0 -0.5 16 16" shape-rendering="crispEdges">
<metadata>Made with Pixels to Svg https://codepen.io/shshaw/pen/XbxvNj</metadata>
<path stroke="#d1cfcf" d="M0 0h1M3 0h8M15 0h1" />
<path stroke="#c1c1c1" d="M1 0h2M11 0h4M0 1h1M15 1h1M0 2h1M0 4h1M0 5h1M0 7h1M0 8h1M0 10h1M0 11h1M0 13h1M0 14h1M0 15h7M9 15h1" />
<path stroke="#f2f2f2" d="M1 1h5M1 4h6M1 7h2M1 10h6M1 13h4" />
<path stroke="#ececec" d="M6 1h3M7 4h3M3 7h5M7 10h4M5 13h4" />
<path stroke="#eaeaea" d="M9 1h1" />
<path stroke="#e6e6e6" d="M10 1h5M1 2h14M10 4h5M1 5h14M8 7h7M1 8h14M11 10h4M1 11h14M9 13h6M1 14h14" />
<path stroke="#b9b9b9" d="M15 2h1M15 4h1M15 5h1M15 7h1M15 8h1M15 10h1M15 11h1M15 13h1M15 14h1M7 15h2M10 15h6" />
<path stroke="#b1b0b0" d="M0 3h1M15 3h1M0 6h1M15 6h1M0 9h1M15 9h1M0 12h1M15 12h1" />
<path stroke="#dcdcdc" d="M1 3h7M1 6h5M1 9h8M1 12h6" />
<path stroke="#e0e0e0" d="M8 3h3M6 6h4M9 9h3M7 12h4" />
<path stroke="#d6d6d6" d="M11 3h4M10 6h5M12 9h3M11 12h4" />
</svg>