<svg xmlns="http://www.w3.org/2000/svg" viewBox="0 -0.5 16 16" shape-rendering="crispEdges">
<metadata>Made with Pixels to Svg https://codepen.io/shshaw/pen/XbxvNj</metadata>
<path stroke="#9d573f" d="M0 0h2M3 0h1M5 0h1M1 1h4M0 3h1M10 3h1M12 3h1M15 3h1M6 4h1M8 4h1M11 4h1M13 4h3M0 5h1M6 5h1M12 5h1M2 6h2M5 6h1M15 6h1M1 7h2M8 7h1M9 8h1M15 8h1M4 9h1M9 9h2M1 10h1M4 10h1M9 10h1M11 10h1M1 11h1M8 11h1M10 11h1M0 12h3M5 12h1M10 13h1M14 13h1" />
<path stroke="#ba694c" d="M2 0h1M4 0h1M6 0h1M11 1h1M13 2h1M15 2h1M7 3h1M9 3h1M14 3h1M1 4h1M10 4h1M8 5h1M0 6h2M6 7h2M9 7h1M5 8h1M0 10h1M5 10h1M8 10h1M3 12h1M10 12h1M2 13h1M12 13h2M1 14h1M11 14h1M2 15h1M5 15h1" />
<path stroke="#a87762" d="M7 0h1M8 1h1M9 2h1M11 6h1M10 7h1" />
<path stroke="#7a9869" d="M8 0h1M4 3h1M5 4h1M13 6h1M12 7h2M11 8h1M15 10h1M6 12h2M9 15h1" />
<path stroke="#988c69" d="M9 0h1M14 7h1" />
<path stroke="#716745" d="M10 0h1M14 0h1M9 1h1M1 2h1M3 2h1M1 3h2M5 3h1M0 4h1M5 5h1M14 6h1M15 7h1M1 8h1M10 8h1M13 8h2M3 9h1M15 9h1M2 10h1M12 10h1M3 11h1M6 11h1M11 11h1M8 12h1M12 12h1M14 12h1M1 13h1M6 13h1M9 14h1M13 14h1M0 15h1M10 15h1" />
<path stroke="#844d3b" d="M11 0h1M15 0h1M0 1h1M5 1h1M10 1h1M4 2h2M10 2h1M6 3h1M11 3h1M7 4h1M12 4h1M7 5h1M13 5h3M4 6h1M6 6h2M0 7h1M3 7h3M0 8h1M3 8h2M1 9h1M11 9h1M10 10h1M2 11h1M4 11h2M9 11h1M15 13h1M6 14h1M10 14h1M6 15h1M11 15h2" />
<path stroke="#d67b5b" d="M12 0h1M6 2h1M12 2h1M8 3h1M1 5h1M3 5h1M9 5h1M11 5h1M8 6h1M8 8h1M7 10h1M4 12h1M11 12h1M11 13h1M2 14h1M5 14h1M12 14h1M1 15h1M4 15h1" />
<path stroke="#ea8770" d="M13 0h1M6 1h1M14 1h1M7 2h2M3 4h1M2 5h1M10 5h1M9 6h1M6 8h2M5 9h1M7 9h2M6 10h1M3 13h1M5 13h1M3 14h2M3 15h1" />
<path stroke="#fba894" d="M7 1h1M12 1h2M2 4h1M10 6h1M6 9h1M4 13h1" />
<path stroke="#b26247" d="M15 1h1M0 2h1M11 2h1M14 2h1M13 3h1M9 4h1M0 9h1M12 9h2M0 11h1M15 12h1" />
<path stroke="#4f5a3e" d="M2 2h1M2 8h1M2 9h1M14 9h1M3 10h1M9 12h1M0 13h1M7 13h3M0 14h1M7 14h1M14 14h1M13 15h1" />
<path stroke="#7f7257" d="M3 3h1M4 5h1M12 8h1M15 11h1" />
<path stroke="#599581" d="M4 4h1M14 10h1M13 11h1M8 14h1" />
<path stroke="#9c6a3f" d="M12 6h1M11 7h1M7 11h1" />
<path stroke="#4fba98" d="M13 10h1M8 15h1" />
<path stroke="#3a7663" d="M12 11h1M14 11h1M13 12h1M15 14h1M7 15h1M14 15h2" />
</svg>