<svg xmlns="http://www.w3.org/2000/svg" viewBox="0 -0.5 16 16" shape-rendering="crispEdges">
<metadata>Made with Pixels to Svg https://codepen.io/shshaw/pen/XbxvNj</metadata>
<path stroke="#8e7454" d="M0 0h1M6 0h1M13 0h1M2 1h4M7 1h1M11 1h2M4 2h1M7 2h3M11 2h1M1 3h1M15 3h1M0 4h1M9 4h1M2 5h1M8 5h1M10 5h1M3 6h1M7 6h2M15 6h1M3 7h1M6 7h1M13 7h1M15 7h1M5 8h2M10 8h2M7 9h1M13 9h1M0 10h2M4 10h2M4 11h2M11 11h1M13 11h2M1 12h1M5 12h1M11 12h2M2 13h1M10 13h1M2 14h1M7 14h1M9 14h2M15 14h1M0 15h2" />
<path stroke="#7c623f" d="M1 0h2M14 0h1M6 1h1M3 2h1M5 2h1M10 2h1M0 3h1M3 3h2M10 3h2M1 4h1M11 4h1M0 5h1M9 5h1M1 6h2M7 7h2M14 7h1M7 8h1M9 8h1M15 8h1M5 9h2M15 9h1M6 10h1M14 10h2M0 11h1M3 11h1M15 11h1M4 12h1M13 12h1M3 13h1M5 13h2M0 14h1M8 14h1M2 15h1M7 15h3M15 15h1" />
<path stroke="#d8af93" d="M3 0h1M8 0h1M10 0h1M9 1h1M13 1h1M0 2h2M6 3h1M14 3h1M7 4h2M12 4h2M4 5h1M6 5h1M11 5h1M13 5h2M4 6h1M11 6h2M1 7h1M0 8h1M2 8h2M1 9h1M9 9h1M12 9h1M10 10h1M8 11h2M0 12h1M7 12h2M14 12h2M1 13h1M15 13h1M4 14h2M11 14h1M13 14h1M5 15h2M11 15h1" />
<path stroke="#af8e77" d="M4 0h2M7 0h1M11 0h2M1 1h1M8 1h1M10 1h1M2 2h1M12 2h1M15 2h1M5 3h1M8 3h1M12 3h2M3 4h1M14 4h2M3 5h1M7 5h1M15 5h1M5 6h2M10 6h1M13 6h2M0 7h1M2 7h1M4 7h2M10 7h3M4 8h1M0 9h1M3 9h2M11 9h1M2 10h2M11 10h3M6 11h1M10 11h1M12 11h1M6 12h1M9 12h2M0 13h1M7 13h3M11 13h1M1 14h1M3 14h1M6 14h1M14 14h1M10 15h1M12 15h3" />
<path stroke="#e9c8b1" d="M9 0h1M0 1h1M15 1h1M13 2h2M7 3h1M4 4h1M6 4h1M5 5h1M12 5h1M1 8h1M2 9h1M8 9h1M10 9h1M7 10h1M9 10h1M7 11h1M13 13h2M12 14h1M3 15h2" />
<path stroke="#665237" d="M15 0h1M6 2h1M2 3h1M9 3h1M2 4h1M10 4h1M1 5h1M0 6h1M9 6h1M9 7h1M8 8h1M12 8h3M14 9h1M1 11h2M2 12h2M4 13h1" />
<path stroke="#fedec8" d="M14 1h1M5 4h1M8 10h1M12 13h1" />
</svg>