<svg xmlns="http://www.w3.org/2000/svg" viewBox="0 -0.5 16 16" shape-rendering="crispEdges">
<metadata>Made with Pixels to Svg https://codepen.io/shshaw/pen/XbxvNj</metadata>
<path stroke="rgba(255,255,255,0.00392156862745098)" d="M0 0h16M0 1h4M6 1h10M0 2h4M7 2h1M10 2h6M0 3h2M4 3h2M10 3h3M14 3h2M0 4h2M5 4h1M8 4h1M11 4h2M15 4h1M0 5h4M5 5h1M7 5h2M11 5h1M0 6h4M7 6h2M13 6h2M0 7h3M8 7h1M12 7h4M0 8h2M4 8h1M6 8h1M10 8h1M12 8h4M0 9h2M3 9h1M6 9h2M9 9h2M13 9h3M0 10h2M3 10h1M6 10h2M10 10h2M13 10h3M0 11h5M12 11h4M0 12h1M2 12h2M9 12h1M12 12h4M0 13h1M5 13h3M12 13h4M0 14h2M5 14h3M13 14h3M0 15h4M5 15h3M9 15h3M13 15h3" />
<path stroke="#3d3d3d" d="M4 1h2M6 2h1M8 2h2M2 3h2M7 3h1M13 3h1M4 4h1M6 4h1M9 4h2M13 4h2M4 5h1M6 5h1M9 5h1M12 5h1M15 5h1M4 6h3M10 6h2M3 7h1M7 7h1M9 7h1M11 7h1M2 8h1M5 8h1M8 8h1M11 8h1M2 9h1M4 9h1M8 9h1M12 9h1M5 10h1M8 10h2M5 11h3M10 11h2M1 12h1M4 12h1M8 12h1M2 13h2M9 13h3M4 14h1M8 14h1M12 14h1" />
<path stroke="#9b9b9b" d="M4 2h2M6 3h1M8 3h2M2 4h2M7 4h1M10 5h1M13 5h2M9 6h1M12 6h1M15 6h1M4 7h3M10 7h1M3 8h1M7 8h1M9 8h1M5 9h1M11 9h1M2 10h1M4 10h1M12 10h1M8 11h2M5 12h3M10 12h2M1 13h1M4 13h1M8 13h1M2 14h2M9 14h3M4 15h1M8 15h1M12 15h1" />
</svg>