<svg xmlns="http://www.w3.org/2000/svg" viewBox="0 -0.5 16 16" shape-rendering="crispEdges">
<metadata>Made with Pixels to Svg https://codepen.io/shshaw/pen/XbxvNj</metadata>
<path stroke="#3d3d3d" d="M5 1h1M6 2h1M8 2h2M7 3h1M4 4h1M6 4h1M9 4h1M13 4h2M4 5h1M6 5h1M9 5h1M12 5h1M4 6h3M10 6h2M3 7h1M7 7h1M9 7h1M11 7h1M2 8h1M8 8h1M2 9h1M4 9h1M8 9h1M5 10h1M8 10h2M5 11h3M4 12h1M8 12h1M3 13h1M9 13h3" />
<path stroke="#9b9b9b" d="M5 2h1M6 3h1M8 3h2M7 4h1M13 5h2M9 6h1M12 6h1M4 7h3M10 7h1M3 8h1M7 8h1M9 8h1M11 8h1M2 10h1M4 10h1M8 11h2M5 12h3M4 13h1M8 13h1M3 14h1M9 14h3" />
</svg>