<svg xmlns="http://www.w3.org/2000/svg" viewBox="0 -0.5 16 16" shape-rendering="crispEdges">
<metadata>Made with Pixels to Svg https://codepen.io/shshaw/pen/XbxvNj</metadata>
<path stroke="rgba(255,255,255,0.00392156862745098)" d="M0 0h16M0 1h16M0 2h8M9 2h7M0 3h7M9 3h7M0 4h6M8 4h1M10 4h3M14 4h2M0 5h6M7 5h2M10 5h2M14 5h2M0 6h4M7 6h2M13 6h3M0 7h3M8 7h1M12 7h4M0 8h3M4 8h3M10 8h6M0 9h8M9 9h7M0 10h8M9 10h7M0 11h5M9 11h7M0 12h5M9 12h7M0 13h8M9 13h7M0 14h16M0 15h16" />
<path stroke="#3d3d3d" d="M8 2h1M7 3h1M6 4h1M9 4h1M13 4h1M6 5h1M9 5h1M12 5h1M4 6h3M10 6h2M3 7h1M7 7h1M9 7h1M8 8h1M8 9h1M8 10h1M5 11h3M8 12h1" />
<path stroke="#9b9b9b" d="M8 3h1M7 4h1M13 5h1M9 6h1M12 6h1M4 7h3M10 7h2M3 8h1M7 8h1M9 8h1M8 11h1M5 12h3M8 13h1" />
</svg>