<svg xmlns="http://www.w3.org/2000/svg" viewBox="0 -0.5 16 16" shape-rendering="crispEdges">
<metadata>Made with Pixels to Svg https://codepen.io/shshaw/pen/XbxvNj</metadata>
<path stroke="#3d3d3d" d="M2 0h1M6 0h1M10 0h1M12 0h1M3 1h3M10 1h1M12 1h1M1 2h1M6 2h1M8 2h2M13 2h1M2 3h2M7 3h1M13 3h1M0 4h2M4 4h1M6 4h1M9 4h2M13 4h2M4 5h1M6 5h1M9 5h1M12 5h1M15 5h1M4 6h3M10 6h2M0 7h2M3 7h1M7 7h1M9 7h1M11 7h1M2 8h1M5 8h1M8 8h1M11 8h1M15 8h1M2 9h1M4 9h1M8 9h1M12 9h1M14 9h1M0 10h1M5 10h1M8 10h2M13 10h1M1 11h1M5 11h3M10 11h2M13 11h1M1 12h1M4 12h1M8 12h1M14 12h2M2 13h2M9 13h3M2 14h1M4 14h2M8 14h1M12 14h2M2 15h1M8 15h1M14 15h1" />
<path stroke="#9b9b9b" d="M8 0h1M14 0h1M2 1h1M6 1h1M3 2h3M10 2h1M12 2h1M1 3h1M6 3h1M8 3h2M2 4h2M7 4h1M0 5h2M10 5h1M13 5h2M9 6h1M12 6h1M15 6h1M4 7h3M10 7h1M0 8h2M3 8h1M7 8h1M9 8h1M5 9h1M11 9h1M15 9h1M2 10h1M4 10h1M12 10h1M14 10h1M0 11h1M8 11h2M5 12h3M10 12h2M13 12h1M1 13h1M4 13h1M8 13h1M14 13h2M3 14h1M9 14h3M4 15h2M12 15h2" />
</svg>